<svg xmlns="http://www.w3.org/2000/svg" viewBox="0 0 256 256">
  <defs>
    <style>
      .cls-1 {
        fill: #001e36;
      }

      .cls-2, .cls-3 {
        fill: #31a8ff;
      }

      .cls-2 {
        fill-rule: evenodd;
      }

      .cls-3 {
        opacity: 0.6;
      }
    </style>
  </defs>
  <g id="Surfaces">
    <g id="Photo_Surface" data-name="Photo Surface">
      <g id="Outline_no_shadow" data-name="Outline no shadow">
        <rect class="cls-1" x="8" y="4" width="240" height="234" rx="42.5"/>
      </g>
    </g>
  </g>
  <g id="Outlined_Mnemonics_Logos" data-name="Outlined Mnemonics &amp; Logos">
    <g id="Ps_Elements" data-name="Ps Elements">
      <g>
        <g id="Group_1428" data-name="Group 1428">
          <path id="Path_1953" data-name="Path 1953" class="cls-2" d="M126.841,133l14.68383,27.12481a41.37309,41.37309,0,0,0,25.25939-23.89118L168.02905,133Zm1.99246-28.00363L115.14764,80.11078a43.18777,43.18777,0,0,0-25.009,24.6388L90.50158,105ZM115.144,126.05419l-13.9362,24.265a40.46951,40.46951,0,0,0,26.75461,10.57556,60.79863,60.79863,0,0,0,6.84472-.62058l.25042-.36292Zm26.25381-13.31562L155.334,88.724a40.78165,40.78165,0,0,0-27.00143-10.20174,46.38149,46.38149,0,0,0-5.98094.48627l-.25042.49721ZM116.015,112H88.0192a39.7984,39.7984,0,0,0-.871,7.83914,41.05385,41.05385,0,0,0,8.83352,25.3828l.62059.36291Zm24.265,14h28.36964a34.62223,34.62223,0,0,0,.62059-7.21852,39.1267,39.1267,0,0,0-8.96056-25.009l-.62059-.49721Z"/>
        </g>
        <path class="cls-3" d="M151.07641,218.99134a13.85479,13.85479,0,0,1-6.747-1.74836L34.08333,155.809a13.38559,13.38559,0,0,1-5.03106-18.52217L93.36644,28.93053a14.13646,14.13646,0,0,1,12.12265-6.81525,13.92812,13.92812,0,0,1,6.73819,1.73363L222.489,85.29709a13.383,13.383,0,0,1,5.01339,18.54524L163.16962,212.18247A14.06789,14.06789,0,0,1,151.07641,218.99134ZM105.48909,32.16759a4.09128,4.09128,0,0,0-3.48248,1.901L37.70668,142.40138a3.27388,3.27388,0,0,0-.35536,2.55529,3.31245,3.31245,0,0,0,1.63006,2.07427l110.24655,61.43492a3.7964,3.7964,0,0,0,1.84848.47317,3.98169,3.98169,0,0,0,3.44567-1.88088l64.33772-108.348a3.259,3.259,0,0,0,.3593-2.56314,3.31215,3.31215,0,0,0-1.6286-2.07231L107.344,32.63536A3.8385,3.8385,0,0,0,105.48909,32.16759Z"/>
      </g>
    </g>
  </g>
</svg>
